<svg viewBox="0 0 1200 630" preserveAspectRatio="xMidYMid slice" xmlns="http://www.w3.org/2000/svg" role="img" aria-label="Misty monsoon hills with rain falling">
  <defs>
    <linearGradient id="msky" x1="0" y1="0" x2="0" y2="1">
      <stop offset="0" stop-color="#8A99A0"/>
      <stop offset="0.6" stop-color="#AEC0BE"/>
      <stop offset="1" stop-color="#CBD8D2"/>
    </linearGradient>
  </defs>
  <rect width="1200" height="630" fill="url(#msky)"/>
  <g fill="#6E7E82" opacity="0.85">
    <ellipse cx="300" cy="130" rx="180" ry="48"/>
    <ellipse cx="520" cy="110" rx="160" ry="52"/>
    <ellipse cx="780" cy="140" rx="190" ry="50"/>
    <ellipse cx="1020" cy="115" rx="170" ry="48"/>
  </g>
  <path d="M0 380 Q200 340 420 380 Q640 420 860 370 Q1020 350 1200 380 L1200 480 L0 480 Z" fill="#5E837A" opacity="0.7"/>
  <path d="M0 440 Q220 410 460 440 Q700 470 940 430 Q1080 415 1200 440 L1200 540 L0 540 Z" fill="#3E7A55"/>
  <path d="M0 520 Q300 495 600 525 Q900 555 1200 515 L1200 630 L0 630 Z" fill="#1F5238"/>
  <g stroke="#DCE6E4" stroke-width="2.5" opacity="0.55" stroke-linecap="round">
    <line x1="140" y1="200" x2="125" y2="240"/>
    <line x1="300" y1="180" x2="285" y2="220"/>
    <line x1="480" y1="210" x2="465" y2="250"/>
    <line x1="660" y1="190" x2="645" y2="230"/>
    <line x1="840" y1="205" x2="825" y2="245"/>
    <line x1="1020" y1="195" x2="1005" y2="235"/>
    <line x1="420" y1="320" x2="405" y2="360"/>
    <line x1="720" y1="310" x2="705" y2="350"/>
  </g>
</svg>
