<svg viewBox="0 0 1200 630" preserveAspectRatio="xMidYMid slice" xmlns="http://www.w3.org/2000/svg" role="img" aria-label="Three-week training path climbing to a mountain summit">
  <defs>
    <linearGradient id="tfsky" x1="0" y1="0" x2="0" y2="1">
      <stop offset="0" stop-color="#8FC1DA"/>
      <stop offset="1" stop-color="#E6F1EC"/>
    </linearGradient>
  </defs>
  <rect width="1200" height="630" fill="url(#tfsky)"/>
  <circle cx="200" cy="120" r="55" fill="#FCFFFE" opacity="0.85"/>
  <path d="M0 300 L180 200 L320 280 L500 180 L680 280 L860 200 L1200 260 L1200 420 L0 420 Z" fill="#C5D7D1" opacity="0.8"/>
  <path d="M180 420 L900 120 L1200 420 Z" fill="#357A4E"/>
  <path d="M900 120 L1200 420 L1040 420 Z" fill="#235C3E"/>
  <path d="M120 560 L320 520 L320 470 L560 430 L560 380 L780 330 L780 280 L900 120" fill="none" stroke="#C0633A" stroke-width="6" stroke-linecap="round" stroke-dasharray="4 16"/>
  <circle cx="300" cy="540" r="10" fill="#2E7D4F" stroke="#fff" stroke-width="3"/>
  <text x="300" y="510" font-family="sans-serif" font-size="16" font-weight="700" fill="#143A28" text-anchor="middle">WEEK 1</text>
  <circle cx="560" cy="400" r="10" fill="#2E7D4F" stroke="#fff" stroke-width="3"/>
  <text x="560" y="370" font-family="sans-serif" font-size="16" font-weight="700" fill="#143A28" text-anchor="middle">WEEK 2</text>
  <circle cx="780" cy="300" r="10" fill="#2E7D4F" stroke="#fff" stroke-width="3"/>
  <text x="780" y="270" font-family="sans-serif" font-size="16" font-weight="700" fill="#143A28" text-anchor="middle">WEEK 3</text>
  <g transform="translate(900 120)">
    <line x1="0" y1="0" x2="0" y2="-40" stroke="#16241C" stroke-width="4"/>
    <path d="M0 -40 L34 -30 L0 -20 Z" fill="#C0633A"/>
  </g>
  <text x="600" y="580" font-family="Georgia,serif" font-size="28" font-weight="700" fill="#143A28" text-anchor="middle">Get Trek-Fit in 3 Weeks</text>
</svg>
