<svg viewBox="0 0 1200 630" preserveAspectRatio="xMidYMid slice" xmlns="http://www.w3.org/2000/svg" role="img" aria-label="Trekking layering system: base, mid, insulation and shell">
  <defs>
    <linearGradient id="wsky" x1="0" y1="0" x2="0" y2="1">
      <stop offset="0" stop-color="#9CCBE0"/>
      <stop offset="1" stop-color="#E6F1EC"/>
    </linearGradient>
  </defs>
  <rect width="1200" height="630" fill="url(#wsky)"/>
  <path d="M0 380 L200 260 L360 340 L520 240 L680 340 L840 260 L1200 200 L1200 480 L0 480 Z" fill="#C5D7D1" opacity="0.7"/>
  <path d="M0 470 Q300 450 600 470 Q900 490 1200 470 L1200 630 L0 630 Z" fill="#2C6044"/>
  <g transform="translate(160 140)">
    <path d="M36 0 L74 0 L110 24 L96 56 L82 44 L82 150 L30 150 L30 44 L16 56 L2 24 Z" fill="#6FB23F"/>
    <text x="56" y="200" font-family="sans-serif" font-size="18" font-weight="700" fill="#143A28" text-anchor="middle">BASE</text>
  </g>
  <g transform="translate(380 130)">
    <path d="M34 0 L78 0 L118 28 L100 68 L82 52 L82 170 L30 170 L30 52 L12 68 L-6 28 Z" fill="#2E7D4F"/>
    <text x="56" y="210" font-family="sans-serif" font-size="18" font-weight="700" fill="#143A28" text-anchor="middle">MID</text>
  </g>
  <g transform="translate(600 120)">
    <path d="M32 0 L84 0 L128 32 L108 76 L84 58 L84 180 L32 180 L32 58 L8 76 L-12 32 Z" fill="#16241C"/>
    <text x="56" y="220" font-family="sans-serif" font-size="18" font-weight="700" fill="#143A28" text-anchor="middle">INSULATION</text>
  </g>
  <g transform="translate(820 110)">
    <path d="M30 0 L86 0 L132 36 L112 84 L86 62 L86 190 L30 190 L30 62 L4 84 L-16 36 Z" fill="#C0633A"/>
    <text x="58" y="230" font-family="sans-serif" font-size="18" font-weight="700" fill="#143A28" text-anchor="middle">SHELL</text>
  </g>
  <text x="600" y="580" font-family="Georgia,serif" font-size="28" font-weight="700" fill="#143A28" text-anchor="middle">What to Wear Trekking</text>
</svg>
